<?xml version="1.0" standalone="no"?>
<!DOCTYPE svg PUBLIC "-//W3C//DTD SVG 20010904//EN"
 "http://www.w3.org/TR/2001/REC-SVG-20010904/DTD/svg10.dtd">
<svg version="1.0" xmlns="http://www.w3.org/2000/svg"
 width="1098.000000pt" height="1280.000000pt" viewBox="0 0 1098.000000 1280.000000"
 preserveAspectRatio="xMidYMid meet">
<g transform="translate(0.000000,1280.000000) scale(0.100000,-0.100000)"
fill="#ffeb3b" stroke="none">
<path d="M4920 12794 c-19 -2 -78 -9 -130 -15 -526 -59 -1055 -292 -1530 -674
-154 -124 -260 -225 -615 -584 -706 -714 -1198 -1105 -1617 -1284 -231 -99
-440 -113 -585 -38 -21 10 -84 53 -141 94 -119 88 -156 99 -225 69 -31 -14
-48 -30 -61 -57 -72 -150 160 -397 474 -505 405 -138 948 6 1545 411 232 158
452 337 900 735 655 581 901 768 1221 930 351 177 637 224 1024 168 390 -56
781 -234 1130 -515 170 -136 510 -488 510 -528 0 -6 -9 -11 -20 -11 -35 0
-311 -90 -435 -142 -662 -275 -1275 -802 -1718 -1473 -394 -598 -634 -1258
-722 -1990 -23 -185 -31 -597 -16 -791 33 -423 135 -956 273 -1429 l24 -80
-28 -87 c-136 -429 -58 -907 207 -1259 115 -153 284 -302 437 -384 l58 -31
124 -250 c224 -449 462 -864 697 -1217 66 -98 119 -179 119 -180 0 -2 -26 0
-57 4 -32 4 -132 8 -223 8 -284 1 -503 -42 -728 -145 -87 -40 -208 -118 -222
-144 -25 -47 2 -100 51 -100 14 0 49 18 78 41 107 80 311 160 502 196 121 22
478 25 617 4 l93 -14 57 -75 c31 -41 65 -85 75 -98 21 -27 35 -21 -116 -49
-253 -47 -544 -190 -796 -392 -174 -140 -291 -262 -291 -303 0 -25 38 -60 67
-60 19 0 54 27 137 108 183 178 330 285 534 389 169 86 408 153 543 153 45 0
50 -3 93 -52 50 -57 55 -68 30 -68 -30 0 -149 -53 -216 -96 -170 -109 -311
-307 -412 -576 -41 -109 -86 -286 -86 -335 0 -38 29 -73 60 -73 28 0 70 44 70
73 0 43 68 271 109 366 64 149 127 247 221 342 69 69 101 93 170 127 47 23
113 47 147 54 l61 12 103 -98 c215 -204 409 -342 589 -419 136 -57 200 -71
330 -70 98 0 128 4 200 28 227 74 434 212 693 465 l129 125 96 -1 c263 -1 470
-152 620 -450 51 -102 103 -251 132 -379 23 -102 37 -128 77 -140 17 -4 30 1
49 20 30 31 29 46 -17 223 -33 127 -70 225 -130 345 -139 276 -356 460 -589
498 -131 22 -126 16 -72 74 l37 40 130 -1 c140 -1 213 -12 342 -49 276 -79
547 -245 801 -489 74 -71 129 -116 141 -116 28 0 61 35 61 64 0 34 -63 108
-178 210 -351 310 -688 470 -1067 508 l-122 12 56 72 c55 71 57 72 126 89 305
72 677 76 940 9 148 -37 260 -86 371 -159 45 -30 91 -55 102 -55 21 0 62 43
62 66 0 24 -52 74 -125 119 -297 186 -749 253 -1200 180 -49 -8 -91 -13 -92
-11 -2 2 43 73 100 157 237 350 459 729 711 1211 77 148 77 148 129 170 336
143 605 421 741 766 59 147 86 283 93 458 8 212 -20 385 -95 577 -22 56 -26
80 -19 98 21 57 120 417 161 588 215 894 229 1561 51 2296 -131 538 -374 1059
-704 1510 -177 243 -476 562 -696 744 -414 343 -902 600 -1349 711 -67 17
-127 34 -134 38 -7 4 -28 41 -46 83 -135 313 -494 726 -881 1015 -479 358
-1001 584 -1535 665 -129 19 -499 34 -590 23z"/>
</g>
</svg>
